
<svg width="500" height="500" xmlns="http://www.w3.org/2000/svg" fill="transparent" transform="rotate(-10, 0, 0)">
<circle cx="250" cy="250" r="200" stroke-width="10" stroke="white" />
<circle cx="250" cy="250" r="187.5" stroke-width="6" stroke="white" />
<path d="M 450.0,250.0 Q 468.82715856613646,266.39882848934593 447.7661652450257,279.8084532352349 Z" fill="white" />
<path d="M 447.7661652450257,279.8084532352349 Q 463.9389214447634,298.83016273783414 441.11456115722814,308.95103488218086 Z" fill="white" />
<path d="M 441.11456115722814,308.95103488218086 Q 454.27164234174006,330.1707118401742 430.1937735804838,336.77674782351164 Z" fill="white" />
<path d="M 430.1937735804838,336.77674782351164 Q 440.0412722975302,359.720379718118 415.247754863199,362.6640116127244 Z" fill="white" />
<path d="M 415.247754863199,362.6640116127244 Q 421.56569426394276,386.8190756206288 396.6103743659653,386.03454755418386 Z" fill="white" />
<path d="M 396.6103743659653,386.03454755418386 Q 399.2576221242744,410.86145946049146 374.6979603717467,406.366296493606 Z" fill="white" />
<path d="M 374.6979603717467,406.366296493606 Q 373.6153813471458,431.3104641115668 350.0,423.20508075688775 Z" fill="white" />
<path d="M 350.0,423.20508075688775 Q 345.2117772189907,447.7092926009127 323.068204873279,436.1747497288409 Z" fill="white" />
<path d="M 323.068204873279,436.1747497288409 Q 314.681299320489,459.6916221983256 294.5041867912629,444.9855824363647 Z" fill="white" />
<path d="M 294.5041867912629,444.9855824363647 Q 282.7059480777973,466.9897874608029 264.94601871728486,449.440759436236 Z" fill="white" />
<path d="M 264.94601871728486,449.440759436236 Q 250.0,469.440759436236 235.05398128271514,449.440759436236 Z" fill="white" />
<path d="M 235.05398128271514,449.440759436236 Q 217.29405192220267,466.9897874608029 205.49581320873713,444.9855824363647 Z" fill="white" />
<path d="M 205.49581320873713,444.9855824363647 Q 185.31870067951098,459.6916221983256 176.931795126721,436.1747497288409 Z" fill="white" />
<path d="M 176.931795126721,436.1747497288409 Q 154.7882227810093,447.70929260091265 149.99999999999994,423.2050807568877 Z" fill="white" />
<path d="M 149.99999999999994,423.2050807568877 Q 126.38461865285419,431.3104641115668 125.3020396282533,406.366296493606 Z" fill="white" />
<path d="M 125.3020396282533,406.366296493606 Q 100.74237787572562,410.86145946049146 103.38962563403473,386.03454755418386 Z" fill="white" />
<path d="M 103.38962563403473,386.03454755418386 Q 78.43430573605727,386.8190756206288 84.75224513680101,362.6640116127244 Z" fill="white" />
<path d="M 84.75224513680101,362.6640116127244 Q 59.95872770246982,359.720379718118 69.80622641951618,336.77674782351164 Z" fill="white" />
<path d="M 69.80622641951618,336.77674782351164 Q 45.728357658259924,330.1707118401742 58.88543884277183,308.95103488218086 Z" fill="white" />
<path d="M 58.88543884277183,308.95103488218086 Q 36.061078555236584,298.83016273783414 52.23383475497428,279.8084532352349 Z" fill="white" />
<path d="M 52.23383475497428,279.8084532352349 Q 31.17284143386354,266.39882848934593 50.0,250.00000000000003 Z" fill="white" />
<path d="M 50.0,250.00000000000003 Q 31.17284143386354,233.60117151065407 52.23383475497428,220.19154676476512 Z" fill="white" />
<path d="M 52.23383475497428,220.19154676476512 Q 36.061078555236605,201.16983726216583 58.88543884277186,191.04896511781914 Z" fill="white" />
<path d="M 58.88543884277186,191.04896511781914 Q 45.72835765825994,169.82928815982586 69.80622641951618,163.22325217648842 Z" fill="white" />
<path d="M 69.80622641951618,163.22325217648842 Q 59.9587277024698,140.27962028188202 84.75224513680101,137.3359883872756 Z" fill="white" />
<path d="M 84.75224513680101,137.3359883872756 Q 78.4343057360573,113.18092437937116 103.38962563403476,113.96545244581611 Z" fill="white" />
<path d="M 103.38962563403476,113.96545244581611 Q 100.74237787572561,89.13854053950857 125.30203962825325,93.63370350639406 Z" fill="white" />
<path d="M 125.30203962825325,93.63370350639406 Q 126.38461865285421,68.68953588843326 150.00000000000006,76.79491924311225 Z" fill="white" />
<path d="M 150.00000000000006,76.79491924311225 Q 154.78822278100938,52.29070739908731 176.93179512672103,63.82525027115912 Z" fill="white" />
<path d="M 176.93179512672103,63.82525027115912 Q 185.31870067951098,40.30837780167438 205.49581320873708,55.01441756363528 Z" fill="white" />
<path d="M 205.49581320873708,55.01441756363528 Q 217.29405192220267,33.010212539197056 235.05398128271523,50.55924056376398 Z" fill="white" />
<path d="M 235.05398128271523,50.55924056376398 Q 250.00000000000006,30.55924056376398 264.94601871728486,50.55924056376398 Z" fill="white" />
<path d="M 264.94601871728486,50.55924056376398 Q 282.70594807779736,33.010212539197056 294.50418679126284,55.01441756363528 Z" fill="white" />
<path d="M 294.50418679126284,55.01441756363528 Q 314.681299320489,40.30837780167441 323.06820487327906,63.82525027115918 Z" fill="white" />
<path d="M 323.06820487327906,63.82525027115918 Q 345.2117772189907,52.29070739908734 350.0,76.79491924311228 Z" fill="white" />
<path d="M 350.0,76.79491924311228 Q 373.6153813471457,68.68953588843326 374.69796037174666,93.63370350639403 Z" fill="white" />
<path d="M 374.69796037174666,93.63370350639403 Q 399.25762212427435,89.13854053950857 396.6103743659653,113.96545244581617 Z" fill="white" />
<path d="M 396.6103743659653,113.96545244581617 Q 421.56569426394276,113.1809243793712 415.247754863199,137.33598838727562 Z" fill="white" />
<path d="M 415.247754863199,137.33598838727562 Q 440.0412722975302,140.279620281882 430.1937735804838,163.22325217648833 Z" fill="white" />
<path d="M 430.1937735804838,163.22325217648833 Q 454.27164234174006,169.82928815982586 441.1145611572282,191.04896511781922 Z" fill="white" />
<path d="M 441.1145611572282,191.04896511781922 Q 463.9389214447634,201.16983726216588 447.7661652450257,220.19154676476512 Z" fill="white" />
<path d="M 447.7661652450257,220.19154676476512 Q 468.82715856613646,233.60117151065404 450.0,249.99999999999994 Z" fill="white" />
<path d="M 392.8941916244324,322.5 L 392.8941916244324,322.5 L 395.83311788589475,328.45491502812524 L 402.4047567873839,329.40983005625054 L 397.6494742059082,334.04508497187476 L 398.7720441473571,340.59016994374946 L 392.8941916244324,337.5 L 387.01633910150764,340.59016994374946 L 388.13890904295664,334.04508497187476 L 383.38362646148084,329.40983005625054 L 389.95526536297,328.45491502812524 Z" fill="white" transform="rotate(30.0, 392.8941916244324, 332.5)" />
<path d="M 366.6726188957804,356.6726188957803 L 366.6726188957804,356.6726188957803 L 369.61154515724274,362.62753392390556 L 376.1831840587319,363.58244895203086 L 371.4279014772561,368.2177038676551 L 372.5504714187051,374.7627888395298 L 366.6726188957804,371.6726188957803 L 360.79476637285563,374.7627888395298 L 361.91733631430463,368.2177038676551 L 357.16205373282884,363.58244895203086 L 363.733692634318,362.62753392390556 Z" fill="white" transform="rotate(45.0, 366.6726188957804, 366.6726188957803)" />
<path d="M 332.5,382.8941916244324 L 332.5,382.8941916244324 L 335.43892626146237,388.8491066525576 L 342.01056516295154,389.8040216806829 L 337.25528258147574,394.43927659630714 L 338.37785252292474,400.98436156818184 L 332.5,397.8941916244324 L 326.62214747707526,400.98436156818184 L 327.74471741852426,394.43927659630714 L 322.98943483704846,389.8040216806829 L 329.56107373853763,388.8491066525576 Z" fill="white" transform="rotate(60.0, 332.5, 392.8941916244324)" />
<path d="M 292.70514244191594,399.37776133769626 L 292.70514244191594,399.37776133769626 L 295.6440687033783,405.3326763658215 L 302.2157076048675,406.2875913939468 L 297.46042502339174,410.922846309571 L 298.5829949648407,417.4679312814457 L 292.70514244191594,414.37776133769626 L 286.8272899189912,417.4679312814457 L 287.9498598604402,410.922846309571 L 283.1945772789644,406.2875913939468 L 289.76621618045357,405.3326763658215 Z" fill="white" transform="rotate(75.0, 292.70514244191594, 409.37776133769626)" />
<path d="M 250.0,405.0 L 250.0,405.0 L 252.93892626146237,410.95491502812524 L 259.51056516295154,411.90983005625054 L 254.75528258147577,416.54508497187476 L 255.87785252292474,423.09016994374946 L 250.0,420.0 L 244.12214747707526,423.09016994374946 L 245.24471741852423,416.54508497187476 L 240.48943483704846,411.90983005625054 L 247.06107373853763,410.95491502812524 Z" fill="white" transform="rotate(90.0, 250.0, 415.0)" />
<path d="M 207.2948575580841,399.37776133769626 L 207.2948575580841,399.37776133769626 L 210.23378381954646,405.3326763658215 L 216.80542272103563,406.2875913939468 L 212.05014013955986,410.922846309571 L 213.17271008100883,417.4679312814457 L 207.2948575580841,414.37776133769626 L 201.41700503515935,417.4679312814457 L 202.53957497660832,410.922846309571 L 197.78429239513255,406.2875913939468 L 204.35593129662172,405.3326763658215 Z" fill="white" transform="rotate(105.0, 207.2948575580841, 409.37776133769626)" />
<path d="M 167.50000000000006,382.8941916244324 L 167.50000000000006,382.8941916244324 L 170.43892626146243,388.8491066525576 L 177.0105651629516,389.8040216806829 L 172.25528258147583,394.43927659630714 L 173.3778525229248,400.98436156818184 L 167.50000000000006,397.8941916244324 L 161.62214747707532,400.98436156818184 L 162.7447174185243,394.43927659630714 L 157.98943483704852,389.8040216806829 L 164.5610737385377,388.8491066525576 Z" fill="white" transform="rotate(120.0, 167.50000000000006, 392.8941916244324)" />
<path d="M 133.32738110421968,356.6726188957804 L 133.32738110421968,356.6726188957804 L 136.26630736568205,362.6275339239056 L 142.83794626717122,363.5824489520309 L 138.08266368569545,368.21770386765513 L 139.20523362714442,374.76278883952983 L 133.32738110421968,371.6726188957804 L 127.44952858129496,374.76278883952983 L 128.57209852274391,368.21770386765513 L 123.81681594126815,363.5824489520309 L 130.3884548427573,362.6275339239056 Z" fill="white" transform="rotate(135.0, 133.32738110421968, 366.6726188957804)" />
<path d="M 107.10580837556765,322.50000000000006 L 107.10580837556765,322.50000000000006 L 110.04473463703002,328.4549150281253 L 116.61637353851918,329.4098300562506 L 111.86109095704342,334.0450849718748 L 112.98366089849239,340.5901699437495 L 107.10580837556765,337.50000000000006 L 101.22795585264292,340.5901699437495 L 102.35052579409188,334.0450849718748 L 97.59524321261611,329.4098300562506 L 104.16688211410528,328.4549150281253 Z" fill="white" transform="rotate(150.0, 107.10580837556765, 332.50000000000006)" />
<path d="M 107.10580837556759,157.50000000000006 L 107.10580837556759,157.50000000000006 L 110.04473463702996,163.45491502812533 L 116.61637353851913,164.40983005625057 L 111.86109095704336,169.0450849718748 L 112.98366089849233,175.59016994374952 L 107.10580837556759,172.50000000000006 L 101.22795585264286,175.59016994374954 L 102.35052579409182,169.0450849718748 L 97.59524321261605,164.4098300562506 L 104.16688211410522,163.45491502812533 Z" fill="white" transform="rotate(210.0, 107.10580837556759, 167.50000000000006)" />
<path d="M 133.3273811042196,123.32738110421974 L 133.3273811042196,123.32738110421974 L 136.26630736568197,129.282296132345 L 142.83794626717113,130.23721116047025 L 138.08266368569537,134.87246607609447 L 139.20523362714434,141.4175510479692 L 133.3273811042196,138.32738110421974 L 127.44952858129487,141.41755104796923 L 128.57209852274383,134.87246607609447 L 123.81681594126806,130.23721116047028 L 130.38845484275723,129.282296132345 Z" fill="white" transform="rotate(225.0, 133.3273811042196, 133.32738110421974)" />
<path d="M 167.49999999999994,97.10580837556768 L 167.49999999999994,97.10580837556768 L 170.4389262614623,103.06072340369293 L 177.01056516295148,104.0156384318182 L 172.2552825814757,108.6508933474424 L 173.37785252292468,115.19597831931715 L 167.49999999999994,112.10580837556768 L 161.6221474770752,115.19597831931715 L 162.74471741852417,108.65089334744242 L 157.9894348370484,104.0156384318182 L 164.56107373853757,103.06072340369295 Z" fill="white" transform="rotate(240.0, 167.49999999999994, 107.10580837556768)" />
<path d="M 207.29485755808395,80.62223866230377 L 207.29485755808395,80.62223866230377 L 210.23378381954632,86.57715369042903 L 216.80542272103548,87.5320687185543 L 212.05014013955972,92.1673236341785 L 213.1727100810087,98.71240860605324 L 207.29485755808395,95.62223866230377 L 201.4170050351592,98.71240860605324 L 202.53957497660818,92.16732363417852 L 197.7842923951324,87.5320687185543 L 204.35593129662158,86.57715369042904 Z" fill="white" transform="rotate(255.0, 207.29485755808395, 90.62223866230377)" />
<path d="M 249.99999999999997,75.0 L 249.99999999999997,75.0 L 252.93892626146234,80.95491502812526 L 259.5105651629515,81.90983005625053 L 254.75528258147574,86.54508497187473 L 255.8778525229247,93.09016994374947 L 249.99999999999997,90.0 L 244.12214747707523,93.09016994374947 L 245.2447174185242,86.54508497187474 L 240.48943483704844,81.90983005625053 L 247.0610737385376,80.95491502812527 Z" fill="white" transform="rotate(270.0, 249.99999999999997, 85.0)" />
<path d="M 292.7051424419158,80.62223866230372 L 292.7051424419158,80.62223866230372 L 295.6440687033782,86.57715369042897 L 302.21570760486736,87.53206871855424 L 297.4604250233916,92.16732363417844 L 298.58299496484057,98.71240860605319 L 292.7051424419158,95.62223866230372 L 286.8272899189911,98.71240860605319 L 287.9498598604401,92.16732363417846 L 283.1945772789643,87.53206871855424 L 289.76621618045345,86.57715369042899 Z" fill="white" transform="rotate(285.0, 292.7051424419158, 90.62223866230372)" />
<path d="M 332.4999999999999,97.10580837556756 L 332.4999999999999,97.10580837556756 L 335.43892626146226,103.06072340369282 L 342.0105651629514,104.01563843181809 L 337.2552825814756,108.65089334744229 L 338.3778525229246,115.19597831931704 L 332.4999999999999,112.10580837556756 L 326.62214747707515,115.19597831931704 L 327.74471741852415,108.6508933474423 L 322.98943483704835,104.01563843181809 L 329.5610737385375,103.06072340369283 Z" fill="white" transform="rotate(300.0, 332.4999999999999, 107.10580837556756)" />
<path d="M 366.6726188957803,123.32738110421963 L 366.6726188957803,123.32738110421963 L 369.6115451572427,129.2822961323449 L 376.18318405873185,130.23721116047014 L 371.4279014772561,134.87246607609436 L 372.55047141870506,141.41755104796908 L 366.6726188957803,138.32738110421963 L 360.7947663728556,141.4175510479691 L 361.9173363143046,134.87246607609436 L 357.1620537328288,130.23721116047017 L 363.73369263431795,129.2822961323449 Z" fill="white" transform="rotate(315.0, 366.6726188957803, 133.32738110421963)" />
<path d="M 392.8941916244323,157.49999999999994 L 392.8941916244323,157.49999999999994 L 395.8331178858947,163.4549150281252 L 402.40475678738386,164.40983005625046 L 397.64947420590806,169.04508497187467 L 398.77204414735706,175.5901699437494 L 392.8941916244323,172.49999999999994 L 387.0163391015076,175.59016994374943 L 388.1389090429566,169.04508497187467 L 383.3836264614808,164.40983005625048 L 389.95526536296995,163.4549150281252 Z" fill="white" transform="rotate(330.0, 392.8941916244323, 167.49999999999994)" />
<path d="M 389.38603310456733,279.6274159415307 A 142.5,142.5 0 0,1 110.6139668954327,279.6274159415307" fill="transparent" stroke-width="6" stroke="white" />
<path d="M 110.6139668954327,220.37258405846933 A 142.5,142.5 0 0,1 389.38603310456733,220.37258405846922" fill="transparent" stroke-width="6" stroke="white" />
<line x1="65.34854631021099" y1="217.44096668745055" x2="434.65145368978904" y2="217.44096668745055" stroke-width="6" stroke="white" />
<line x1="65.34854631021099" y1="282.55903331254945" x2="434.65145368978904" y2="282.55903331254945" stroke-width="6" stroke="white" />
<text x="83.34854631021099" y="270.55903331254945" font-family="Stencil" font-size="60" fill="white">stakecore</text>
<g fill="white" transform="translate(230, 315)">
<path d="M27.3,13.7H9.2c-5,0-9,3.9-9.2,8.9c0,0.1,0.1,0.2,0.2,0.2h18.1c5,0,9-3.9,9.2-8.9  C27.5,13.8,27.4,13.7,27.3,13.7L27.3,13.7L27.3,13.7z"/>
<path d="M36.4,0H9.2c-5,0-9,3.9-9.2,8.9C0,9,0.1,9.2,0.2,9.2h27.3c5,0,9-3.9,9.2-8.9  C36.7,0.1,36.6,0,36.4,0L36.4,0L36.4,0z"/>
<circle cx="4.6" cy="32" r="4.6"/>
</g>
<rect x="231" y="141" width="34" height="49" fill="white" />
<g fill="#121214" transform="translate(230, 140) scale(0.25)">
<path d="M151,210H4V6H151V210Zm-98.589-84.87L6,208.092l37.97-11.31Zm4.131-6.306L50.8,168.172l67.253-41.418-15.17-1.958Zm38.5-49.547L86.64,79.871l-28.4,35.781,46.976,6.056,14.966,1.928L104.434,89.584Zm44.266,5.084-31.137,15.3,14.6,31.572ZM20.965,7,55.7,113.445l23.339-29.4,14.049-17.7L20.965,7ZM141.86,77.243l-7.6,21.544,15.012,13.588Z" transform="translate(-4 -6)" />
</g>
</svg>
